<?xml version="1.0" encoding="utf-8"?>
<!-- Generator: Adobe Illustrator 18.0.0, SVG Export Plug-In . SVG Version: 6.00 Build 0)  -->
<!DOCTYPE svg PUBLIC "-//W3C//DTD SVG 1.1//EN" "http://www.w3.org/Graphics/SVG/1.1/DTD/svg11.dtd">
<svg version="1.1" id="Layer_1" xmlns="http://www.w3.org/2000/svg" xmlns:xlink="http://www.w3.org/1999/xlink" x="0px" y="0px"
	 viewBox="0 0 100 100" enable-background="new 0 0 100 100" xml:space="preserve">
<path fill="#A5C67F" d="M71.6,15c-9.7,0-18,5.8-21.6,14.2C46.4,20.8,38.1,15,28.4,15c-13,0-23.6,10.6-23.6,23.6
	c0,7.8,3.8,14.6,9.6,18.9L50,85l35.6-27.6c5.8-4.3,9.6-11.1,9.6-18.9C95.2,25.5,84.6,15,71.6,15z M72.3,53.1H59.9l-3.5-9.3
	l-7.6,23.4L41.2,50l-0.8,2.2H27.7v-3.6h10.3l2.9-8.2l7.5,16.8l7.9-24.3l6.2,16.6h10L72.3,53.1L72.3,53.1z"/>
</svg>
