<?xml version="1.0" encoding="utf-8"?>
<!-- Generator: Adobe Illustrator 18.0.0, SVG Export Plug-In . SVG Version: 6.00 Build 0)  -->
<!DOCTYPE svg PUBLIC "-//W3C//DTD SVG 1.1//EN" "http://www.w3.org/Graphics/SVG/1.1/DTD/svg11.dtd">
<svg version="1.1" id="Your_Icon" xmlns="http://www.w3.org/2000/svg" xmlns:xlink="http://www.w3.org/1999/xlink" x="0px" y="0px"
	 viewBox="0 0 100 100" enable-background="new 0 0 100 100" xml:space="preserve">
<polygon fill="#A5C67F" points="50,94.8 45.5,85.6 54.5,85.6 "/>
<polygon fill="#A5C67F" points="85.9,35.6 84.5,33.2 81.5,31.3 73.7,35.8 78.5,44.1 86.3,39.5 "/>
<polygon fill="#A5C67F" points="36.9,28.8 41.4,36.5 58.8,36.5 63.2,28.8 "/>
<polygon fill="#A5C67F" points="29.4,53.4 38.1,38.3 33.7,30.6 20.5,53.4 "/>
<polygon fill="#A5C67F" points="38.1,72.2 29.4,57.1 20.5,57.1 33.6,79.8 "/>
<polygon fill="#A5C67F" points="32.6,55.3 41.4,70.4 58.8,70.4 67.5,55.3 58.8,40.2 41.4,40.2 "/>
<polygon fill="#A5C67F" points="62,38.3 70.7,53.4 79.6,53.4 66.4,30.6 "/>
<polygon fill="#A5C67F" points="58.8,74.1 41.3,74.1 36.8,81.8 63.2,81.8 "/>
<polygon fill="#A5C67F" points="70.7,57.1 62,72.2 66.4,79.9 79.6,57.1 "/>
<polygon fill="#A5C67F" points="14.1,35.8 15.5,33.4 18.5,31.5 26.3,36.1 21.5,44.3 13.7,39.8 "/>
<polygon fill="#A5C67F" points="85.9,74.9 84.5,77.3 81.5,79.2 73.7,74.7 78.5,66.4 86.3,71 "/>
<polygon fill="#A5C67F" points="14.2,75 15.7,77.4 18.6,79.3 26.4,74.8 21.7,66.5 13.9,71 "/>
<path fill="#A5C67F" d="M56.7,10.9L53,6.1l-2.9-0.9l-3.1,0.9l-3.5,4.7l0,14.2l13.2,0L56.7,10.9z M47.7,13.3h-1.5l-0.8-1.3l0.8-1.3
	h1.5l0.8,1.3L47.7,13.3z M54,13.3h-1.5l-0.8-1.3l0.8-1.3H54l0.8,1.3L54,13.3z"/>
</svg>
