<?xml version="1.0" encoding="utf-8"?>
<!-- Generator: Adobe Illustrator 18.0.0, SVG Export Plug-In . SVG Version: 6.00 Build 0)  -->
<!DOCTYPE svg PUBLIC "-//W3C//DTD SVG 1.1//EN" "http://www.w3.org/Graphics/SVG/1.1/DTD/svg11.dtd">
<svg version="1.1" id="Layer_1" xmlns="http://www.w3.org/2000/svg" xmlns:xlink="http://www.w3.org/1999/xlink" x="0px" y="0px"
	 viewBox="0 0 100 100" enable-background="new 0 0 100 100" xml:space="preserve">
<g id="Captions">
</g>
<g id="Your_Icon">
	<path fill="#A5C67F" d="M37,20.9h26.3l2.4-3.4c2-3,4.1-5.8,6-8.8c0.9-1.4,2.6-3.8,1.9-5.6c-0.5-1.3-1.7-1.7-3-2
		c-0.9-0.2-5.7-1.4-7.6-1c-1.7,0.3-3.3,1.2-4.9,1.7c-2.3,0.8-4.8,1.5-7.4,1.3C48.7,3,46.2,2.7,44.1,2c-1.7-0.6-3.3-1.5-5.2-1.8
		c-1.6-0.3-7.2,0.5-8.4,0.7c-8,1.4-2.2,7.5,4,16.6L37,20.9z M95.1,69.1c-6.8-15.6-19-32.5-31.8-40.7H36.7
		c-12.8,8.2-25,25.2-31.8,40.7C-1.8,84.7,6.3,100,21.7,100h56.5C93.7,100,101.9,84.7,95.1,69.1z M52.5,83.2v6.3h-5v-5.9
		c-3.9-0.1-7.7-1.2-9.9-2.7l1.7-5.8c2.4,1.4,5.8,2.7,9.6,2.7c3.9,0,6.5-1.9,6.5-4.8c0-2.8-2.1-4.5-6.7-6.2
		c-6.4-2.3-10.6-5.3-10.6-11c0-5.3,3.7-9.3,9.9-10.4v-6h5v5.7c3.9,0.1,6.5,1,8.5,2l-1.7,5.6c-1.5-0.7-4.2-2.1-8.3-2.1
		c-4.3,0-5.8,2.2-5.8,4.3c0,2.5,2.2,3.9,7.4,6c6.9,2.6,9.9,5.9,9.9,11.3C62.8,77.5,59.2,82.1,52.5,83.2z"/>
</g>
</svg>
